<?xml version="1.0" encoding="utf-8" standalone="no"?>
<!DOCTYPE svg PUBLIC "-//W3C//DTD SVG 1.1//EN"
  "http://www.w3.org/Graphics/SVG/1.1/DTD/svg11.dtd">
<svg xmlns:xlink="http://www.w3.org/1999/xlink" width="399.057188pt" height="133.12375pt" viewBox="0 0 399.057188 133.12375" xmlns="http://www.w3.org/2000/svg" version="1.1">
 <metadata>
  <rdf:RDF xmlns:dc="http://purl.org/dc/elements/1.1/" xmlns:cc="http://creativecommons.org/ns#" xmlns:rdf="http://www.w3.org/1999/02/22-rdf-syntax-ns#">
   <cc:Work>
    <dc:type rdf:resource="http://purl.org/dc/dcmitype/StillImage"/>
    <dc:date>2023-02-21T16:02:06.245321</dc:date>
    <dc:format>image/svg+xml</dc:format>
    <dc:creator>
     <cc:Agent>
      <dc:title>Matplotlib v3.6.3, https://matplotlib.org/</dc:title>
     </cc:Agent>
    </dc:creator>
   </cc:Work>
  </rdf:RDF>
 </metadata>
 <defs>
  <style type="text/css">*{stroke-linejoin: round; stroke-linecap: butt}</style>
 </defs>
 <g id="figure_1">
  <g id="patch_1">
   <path d="M 0 133.12375 
L 399.057188 133.12375 
L 399.057188 0 
L 0 0 
z
" style="fill: #ffffff"/>
  </g>
  <g id="axes_1">
   <g id="patch_2">
    <path d="M 33.965938 99.43875 
L 368.765938 99.43875 
L 368.765938 16.27875 
L 33.965938 16.27875 
z
" style="fill: #ffffff"/>
   </g>
   <g id="matplotlib.axis_1">
    <g id="xtick_1">
     <g id="line2d_1">
      <defs>
       <path id="m14f50a4a11" d="M 0 0 
L 0 3.5 
" style="stroke: #000000; stroke-width: 0.8"/>
      </defs>
      <g>
       <use xlink:href="#m14f50a4a11" x="33.965938" y="99.43875" style="stroke: #000000; stroke-width: 0.8"/>
      </g>
     </g>
     <g id="text_1">
      <!-- −0.2 -->
      <g transform="translate(24.252813 112.5175) scale(0.08 -0.08)">
       <defs>
        <path id="DejaVuSans-2212" d="M 678 2272 
L 4684 2272 
L 4684 1741 
L 678 1741 
L 678 2272 
z
" transform="scale(0.015625)"/>
        <path id="DejaVuSans-30" d="M 2034 4250 
Q 1547 4250 1301 3770 
Q 1056 3291 1056 2328 
Q 1056 1369 1301 889 
Q 1547 409 2034 409 
Q 2525 409 2770 889 
Q 3016 1369 3016 2328 
Q 3016 3291 2770 3770 
Q 2525 4250 2034 4250 
z
M 2034 4750 
Q 2819 4750 3233 4129 
Q 3647 3509 3647 2328 
Q 3647 1150 3233 529 
Q 2819 -91 2034 -91 
Q 1250 -91 836 529 
Q 422 1150 422 2328 
Q 422 3509 836 4129 
Q 1250 4750 2034 4750 
z
" transform="scale(0.015625)"/>
        <path id="DejaVuSans-2e" d="M 684 794 
L 1344 794 
L 1344 0 
L 684 0 
L 684 794 
z
" transform="scale(0.015625)"/>
        <path id="DejaVuSans-32" d="M 1228 531 
L 3431 531 
L 3431 0 
L 469 0 
L 469 531 
Q 828 903 1448 1529 
Q 2069 2156 2228 2338 
Q 2531 2678 2651 2914 
Q 2772 3150 2772 3378 
Q 2772 3750 2511 3984 
Q 2250 4219 1831 4219 
Q 1534 4219 1204 4116 
Q 875 4013 500 3803 
L 500 4441 
Q 881 4594 1212 4672 
Q 1544 4750 1819 4750 
Q 2544 4750 2975 4387 
Q 3406 4025 3406 3419 
Q 3406 3131 3298 2873 
Q 3191 2616 2906 2266 
Q 2828 2175 2409 1742 
Q 1991 1309 1228 531 
z
" transform="scale(0.015625)"/>
       </defs>
       <use xlink:href="#DejaVuSans-2212"/>
       <use xlink:href="#DejaVuSans-30" x="83.789062"/>
       <use xlink:href="#DejaVuSans-2e" x="147.412109"/>
       <use xlink:href="#DejaVuSans-32" x="179.199219"/>
      </g>
     </g>
    </g>
    <g id="xtick_2">
     <g id="line2d_2">
      <g>
       <use xlink:href="#m14f50a4a11" x="117.665938" y="99.43875" style="stroke: #000000; stroke-width: 0.8"/>
      </g>
     </g>
     <g id="text_2">
      <!-- 0.0 -->
      <g transform="translate(111.304688 112.5175) scale(0.08 -0.08)">
       <use xlink:href="#DejaVuSans-30"/>
       <use xlink:href="#DejaVuSans-2e" x="63.623047"/>
       <use xlink:href="#DejaVuSans-30" x="95.410156"/>
      </g>
     </g>
    </g>
    <g id="xtick_3">
     <g id="line2d_3">
      <g>
       <use xlink:href="#m14f50a4a11" x="201.365938" y="99.43875" style="stroke: #000000; stroke-width: 0.8"/>
      </g>
     </g>
     <g id="text_3">
      <!-- 0.2 -->
      <g transform="translate(195.004688 112.5175) scale(0.08 -0.08)">
       <use xlink:href="#DejaVuSans-30"/>
       <use xlink:href="#DejaVuSans-2e" x="63.623047"/>
       <use xlink:href="#DejaVuSans-32" x="95.410156"/>
      </g>
     </g>
    </g>
    <g id="xtick_4">
     <g id="line2d_4">
      <g>
       <use xlink:href="#m14f50a4a11" x="285.065938" y="99.43875" style="stroke: #000000; stroke-width: 0.8"/>
      </g>
     </g>
     <g id="text_4">
      <!-- 0.4 -->
      <g transform="translate(278.704688 112.5175) scale(0.08 -0.08)">
       <defs>
        <path id="DejaVuSans-34" d="M 2419 4116 
L 825 1625 
L 2419 1625 
L 2419 4116 
z
M 2253 4666 
L 3047 4666 
L 3047 1625 
L 3713 1625 
L 3713 1100 
L 3047 1100 
L 3047 0 
L 2419 0 
L 2419 1100 
L 313 1100 
L 313 1709 
L 2253 4666 
z
" transform="scale(0.015625)"/>
       </defs>
       <use xlink:href="#DejaVuSans-30"/>
       <use xlink:href="#DejaVuSans-2e" x="63.623047"/>
       <use xlink:href="#DejaVuSans-34" x="95.410156"/>
      </g>
     </g>
    </g>
    <g id="xtick_5">
     <g id="line2d_5">
      <g>
       <use xlink:href="#m14f50a4a11" x="368.765938" y="99.43875" style="stroke: #000000; stroke-width: 0.8"/>
      </g>
     </g>
     <g id="text_5">
      <!-- 0.6 -->
      <g transform="translate(362.404688 112.5175) scale(0.08 -0.08)">
       <defs>
        <path id="DejaVuSans-36" d="M 2113 2584 
Q 1688 2584 1439 2293 
Q 1191 2003 1191 1497 
Q 1191 994 1439 701 
Q 1688 409 2113 409 
Q 2538 409 2786 701 
Q 3034 994 3034 1497 
Q 3034 2003 2786 2293 
Q 2538 2584 2113 2584 
z
M 3366 4563 
L 3366 3988 
Q 3128 4100 2886 4159 
Q 2644 4219 2406 4219 
Q 1781 4219 1451 3797 
Q 1122 3375 1075 2522 
Q 1259 2794 1537 2939 
Q 1816 3084 2150 3084 
Q 2853 3084 3261 2657 
Q 3669 2231 3669 1497 
Q 3669 778 3244 343 
Q 2819 -91 2113 -91 
Q 1303 -91 875 529 
Q 447 1150 447 2328 
Q 447 3434 972 4092 
Q 1497 4750 2381 4750 
Q 2619 4750 2861 4703 
Q 3103 4656 3366 4563 
z
" transform="scale(0.015625)"/>
       </defs>
       <use xlink:href="#DejaVuSans-30"/>
       <use xlink:href="#DejaVuSans-2e" x="63.623047"/>
       <use xlink:href="#DejaVuSans-36" x="95.410156"/>
      </g>
     </g>
    </g>
    <g id="text_6">
     <!-- Time (s) -->
     <g transform="translate(185.102812 124.26) scale(0.08 -0.08)">
      <defs>
       <path id="DejaVuSans-54" d="M -19 4666 
L 3928 4666 
L 3928 4134 
L 2272 4134 
L 2272 0 
L 1638 0 
L 1638 4134 
L -19 4134 
L -19 4666 
z
" transform="scale(0.015625)"/>
       <path id="DejaVuSans-69" d="M 603 3500 
L 1178 3500 
L 1178 0 
L 603 0 
L 603 3500 
z
M 603 4863 
L 1178 4863 
L 1178 4134 
L 603 4134 
L 603 4863 
z
" transform="scale(0.015625)"/>
       <path id="DejaVuSans-6d" d="M 3328 2828 
Q 3544 3216 3844 3400 
Q 4144 3584 4550 3584 
Q 5097 3584 5394 3201 
Q 5691 2819 5691 2113 
L 5691 0 
L 5113 0 
L 5113 2094 
Q 5113 2597 4934 2840 
Q 4756 3084 4391 3084 
Q 3944 3084 3684 2787 
Q 3425 2491 3425 1978 
L 3425 0 
L 2847 0 
L 2847 2094 
Q 2847 2600 2669 2842 
Q 2491 3084 2119 3084 
Q 1678 3084 1418 2786 
Q 1159 2488 1159 1978 
L 1159 0 
L 581 0 
L 581 3500 
L 1159 3500 
L 1159 2956 
Q 1356 3278 1631 3431 
Q 1906 3584 2284 3584 
Q 2666 3584 2933 3390 
Q 3200 3197 3328 2828 
z
" transform="scale(0.015625)"/>
       <path id="DejaVuSans-65" d="M 3597 1894 
L 3597 1613 
L 953 1613 
Q 991 1019 1311 708 
Q 1631 397 2203 397 
Q 2534 397 2845 478 
Q 3156 559 3463 722 
L 3463 178 
Q 3153 47 2828 -22 
Q 2503 -91 2169 -91 
Q 1331 -91 842 396 
Q 353 884 353 1716 
Q 353 2575 817 3079 
Q 1281 3584 2069 3584 
Q 2775 3584 3186 3129 
Q 3597 2675 3597 1894 
z
M 3022 2063 
Q 3016 2534 2758 2815 
Q 2500 3097 2075 3097 
Q 1594 3097 1305 2825 
Q 1016 2553 972 2059 
L 3022 2063 
z
" transform="scale(0.015625)"/>
       <path id="DejaVuSans-20" transform="scale(0.015625)"/>
       <path id="DejaVuSans-28" d="M 1984 4856 
Q 1566 4138 1362 3434 
Q 1159 2731 1159 2009 
Q 1159 1288 1364 580 
Q 1569 -128 1984 -844 
L 1484 -844 
Q 1016 -109 783 600 
Q 550 1309 550 2009 
Q 550 2706 781 3412 
Q 1013 4119 1484 4856 
L 1984 4856 
z
" transform="scale(0.015625)"/>
       <path id="DejaVuSans-73" d="M 2834 3397 
L 2834 2853 
Q 2591 2978 2328 3040 
Q 2066 3103 1784 3103 
Q 1356 3103 1142 2972 
Q 928 2841 928 2578 
Q 928 2378 1081 2264 
Q 1234 2150 1697 2047 
L 1894 2003 
Q 2506 1872 2764 1633 
Q 3022 1394 3022 966 
Q 3022 478 2636 193 
Q 2250 -91 1575 -91 
Q 1294 -91 989 -36 
Q 684 19 347 128 
L 347 722 
Q 666 556 975 473 
Q 1284 391 1588 391 
Q 1994 391 2212 530 
Q 2431 669 2431 922 
Q 2431 1156 2273 1281 
Q 2116 1406 1581 1522 
L 1381 1569 
Q 847 1681 609 1914 
Q 372 2147 372 2553 
Q 372 3047 722 3315 
Q 1072 3584 1716 3584 
Q 2034 3584 2315 3537 
Q 2597 3491 2834 3397 
z
" transform="scale(0.015625)"/>
       <path id="DejaVuSans-29" d="M 513 4856 
L 1013 4856 
Q 1481 4119 1714 3412 
Q 1947 2706 1947 2009 
Q 1947 1309 1714 600 
Q 1481 -109 1013 -844 
L 513 -844 
Q 928 -128 1133 580 
Q 1338 1288 1338 2009 
Q 1338 2731 1133 3434 
Q 928 4138 513 4856 
z
" transform="scale(0.015625)"/>
      </defs>
      <use xlink:href="#DejaVuSans-54"/>
      <use xlink:href="#DejaVuSans-69" x="57.958984"/>
      <use xlink:href="#DejaVuSans-6d" x="85.742188"/>
      <use xlink:href="#DejaVuSans-65" x="183.154297"/>
      <use xlink:href="#DejaVuSans-20" x="244.677734"/>
      <use xlink:href="#DejaVuSans-28" x="276.464844"/>
      <use xlink:href="#DejaVuSans-73" x="315.478516"/>
      <use xlink:href="#DejaVuSans-29" x="367.578125"/>
     </g>
    </g>
   </g>
   <g id="matplotlib.axis_2">
    <g id="ytick_1">
     <g id="line2d_6">
      <defs>
       <path id="mcf16c78629" d="M 0 0 
L -3.5 0 
" style="stroke: #000000; stroke-width: 0.8"/>
      </defs>
      <g>
       <use xlink:href="#mcf16c78629" x="33.965938" y="99.43875" style="stroke: #000000; stroke-width: 0.8"/>
      </g>
     </g>
     <g id="text_7">
      <!-- $\mathdefault{0}$ -->
      <g transform="translate(21.845938 102.478125) scale(0.08 -0.08)">
       <use xlink:href="#DejaVuSans-30" transform="translate(0 0.78125)"/>
      </g>
     </g>
    </g>
    <g id="ytick_2">
     <g id="line2d_7">
      <g>
       <use xlink:href="#mcf16c78629" x="33.965938" y="16.27875" style="stroke: #000000; stroke-width: 0.8"/>
      </g>
     </g>
     <g id="text_8">
      <!-- $\mathdefault{4}$ -->
      <g transform="translate(21.845938 19.318125) scale(0.08 -0.08)">
       <use xlink:href="#DejaVuSans-34" transform="translate(0 0.09375)"/>
      </g>
     </g>
    </g>
    <g id="text_9">
     <!-- RMS -->
     <g transform="translate(15.558281 69.9175) rotate(-90) scale(0.11 -0.11)">
      <defs>
       <path id="DejaVuSans-52" d="M 2841 2188 
Q 3044 2119 3236 1894 
Q 3428 1669 3622 1275 
L 4263 0 
L 3584 0 
L 2988 1197 
Q 2756 1666 2539 1819 
Q 2322 1972 1947 1972 
L 1259 1972 
L 1259 0 
L 628 0 
L 628 4666 
L 2053 4666 
Q 2853 4666 3247 4331 
Q 3641 3997 3641 3322 
Q 3641 2881 3436 2590 
Q 3231 2300 2841 2188 
z
M 1259 4147 
L 1259 2491 
L 2053 2491 
Q 2509 2491 2742 2702 
Q 2975 2913 2975 3322 
Q 2975 3731 2742 3939 
Q 2509 4147 2053 4147 
L 1259 4147 
z
" transform="scale(0.015625)"/>
       <path id="DejaVuSans-4d" d="M 628 4666 
L 1569 4666 
L 2759 1491 
L 3956 4666 
L 4897 4666 
L 4897 0 
L 4281 0 
L 4281 4097 
L 3078 897 
L 2444 897 
L 1241 4097 
L 1241 0 
L 628 0 
L 628 4666 
z
" transform="scale(0.015625)"/>
       <path id="DejaVuSans-53" d="M 3425 4513 
L 3425 3897 
Q 3066 4069 2747 4153 
Q 2428 4238 2131 4238 
Q 1616 4238 1336 4038 
Q 1056 3838 1056 3469 
Q 1056 3159 1242 3001 
Q 1428 2844 1947 2747 
L 2328 2669 
Q 3034 2534 3370 2195 
Q 3706 1856 3706 1288 
Q 3706 609 3251 259 
Q 2797 -91 1919 -91 
Q 1588 -91 1214 -16 
Q 841 59 441 206 
L 441 856 
Q 825 641 1194 531 
Q 1563 422 1919 422 
Q 2459 422 2753 634 
Q 3047 847 3047 1241 
Q 3047 1584 2836 1778 
Q 2625 1972 2144 2069 
L 1759 2144 
Q 1053 2284 737 2584 
Q 422 2884 422 3419 
Q 422 4038 858 4394 
Q 1294 4750 2059 4750 
Q 2388 4750 2728 4690 
Q 3069 4631 3425 4513 
z
" transform="scale(0.015625)"/>
      </defs>
      <use xlink:href="#DejaVuSans-52"/>
      <use xlink:href="#DejaVuSans-4d" x="69.482422"/>
      <use xlink:href="#DejaVuSans-53" x="155.761719"/>
     </g>
    </g>
    <g id="text_10">
     <!-- $\times\mathdefault{10^{13}}\mathdefault{}$ -->
     <g transform="translate(33.965938 13.27875) scale(0.08 -0.08)">
      <defs>
       <path id="DejaVuSans-d7" d="M 4488 3438 
L 3059 2003 
L 4488 575 
L 4116 197 
L 2681 1631 
L 1247 197 
L 878 575 
L 2303 2003 
L 878 3438 
L 1247 3816 
L 2681 2381 
L 4116 3816 
L 4488 3438 
z
" transform="scale(0.015625)"/>
       <path id="DejaVuSans-31" d="M 794 531 
L 1825 531 
L 1825 4091 
L 703 3866 
L 703 4441 
L 1819 4666 
L 2450 4666 
L 2450 531 
L 3481 531 
L 3481 0 
L 794 0 
L 794 531 
z
" transform="scale(0.015625)"/>
       <path id="DejaVuSans-33" d="M 2597 2516 
Q 3050 2419 3304 2112 
Q 3559 1806 3559 1356 
Q 3559 666 3084 287 
Q 2609 -91 1734 -91 
Q 1441 -91 1130 -33 
Q 819 25 488 141 
L 488 750 
Q 750 597 1062 519 
Q 1375 441 1716 441 
Q 2309 441 2620 675 
Q 2931 909 2931 1356 
Q 2931 1769 2642 2001 
Q 2353 2234 1838 2234 
L 1294 2234 
L 1294 2753 
L 1863 2753 
Q 2328 2753 2575 2939 
Q 2822 3125 2822 3475 
Q 2822 3834 2567 4026 
Q 2313 4219 1838 4219 
Q 1578 4219 1281 4162 
Q 984 4106 628 3988 
L 628 4550 
Q 988 4650 1302 4700 
Q 1616 4750 1894 4750 
Q 2613 4750 3031 4423 
Q 3450 4097 3450 3541 
Q 3450 3153 3228 2886 
Q 3006 2619 2597 2516 
z
" transform="scale(0.015625)"/>
      </defs>
      <use xlink:href="#DejaVuSans-d7" transform="translate(0 0.765625)"/>
      <use xlink:href="#DejaVuSans-31" transform="translate(83.789062 0.765625)"/>
      <use xlink:href="#DejaVuSans-30" transform="translate(147.412109 0.765625)"/>
      <use xlink:href="#DejaVuSans-31" transform="translate(211.992188 39.046875) scale(0.7)"/>
      <use xlink:href="#DejaVuSans-33" transform="translate(256.52832 39.046875) scale(0.7)"/>
     </g>
    </g>
   </g>
   <g id="line2d_8">
    <path d="M 33.965938 91.107172 
L 38.150938 90.066901 
L 42.335938 91.076434 
L 46.520938 90.176893 
L 50.705938 89.607665 
L 54.890937 91.510921 
L 59.075938 90.788739 
L 63.260938 91.251331 
L 67.445938 92.681421 
L 71.630938 92.25875 
L 75.815938 91.623505 
L 80.000938 92.952092 
L 84.185938 93.926455 
L 88.370938 92.141452 
L 92.555938 90.689694 
L 96.740938 90.267624 
L 100.925938 91.460472 
L 105.110938 91.919481 
L 109.295938 88.835925 
L 113.480938 85.779794 
L 117.665938 84.905799 
L 121.850938 83.441292 
L 126.035938 81.041165 
L 130.220938 77.7689 
L 134.405937 70.963193 
L 138.590937 65.298491 
L 142.775937 58.879883 
L 146.960938 50.598456 
L 151.145938 44.225991 
L 155.330938 42.125127 
L 159.515938 43.29709 
L 163.700938 49.693628 
L 167.885938 56.663493 
L 172.070938 62.066356 
L 176.255938 67.606778 
L 180.440938 70.273404 
L 184.625938 68.997332 
L 188.810938 68.677177 
L 192.995938 67.52177 
L 197.180938 65.231009 
L 201.365938 62.711034 
L 205.550938 58.626382 
L 209.735938 50.233486 
L 213.920938 47.897735 
L 218.105938 46.700592 
L 222.290938 48.489507 
L 226.475938 55.55338 
L 230.660938 61.342217 
L 234.845937 60.812559 
L 239.030937 61.010711 
L 243.215937 61.68151 
L 247.400937 60.94011 
L 251.585938 60.054941 
L 255.770938 56.314227 
L 259.955938 55.714661 
L 264.140938 57.567245 
L 268.325938 57.340462 
L 272.510938 57.477677 
L 276.695938 58.083557 
L 280.880937 53.164224 
L 285.065938 51.811348 
L 289.250937 52.561174 
L 293.435938 50.845747 
L 297.620937 50.091561 
L 301.805938 51.9911 
L 305.990938 52.300353 
L 310.175938 51.614046 
L 314.360938 52.055183 
L 318.545938 50.591396 
L 322.730938 48.046242 
L 326.915938 47.978601 
L 331.100937 51.916522 
L 335.285938 54.740059 
L 339.470937 53.85876 
L 343.655938 51.266184 
L 347.840937 50.736102 
L 352.025938 51.323512 
L 356.210938 51.346098 
L 360.395938 52.732275 
L 364.580938 52.797214 
L 368.765938 54.093041 
" clip-path="url(#pe2ff53fc77)" style="fill: none; stroke: #30a2da; stroke-width: 1.5; stroke-linecap: square"/>
   </g>
   <g id="line2d_9">
    <path d="M 33.965938 92.238534 
L 38.150938 90.75861 
L 42.335938 91.330234 
L 46.520938 91.468213 
L 50.705938 91.325083 
L 54.890937 91.357158 
L 59.075938 91.873313 
L 63.260938 93.075123 
L 67.445938 93.417307 
L 71.630938 93.112468 
L 75.815938 92.613244 
L 80.000938 93.281348 
L 84.185938 95.122296 
L 88.370938 93.840072 
L 92.555938 91.75735 
L 96.740938 90.723905 
L 100.925938 92.534785 
L 105.110938 93.946327 
L 109.295938 91.171081 
L 113.480938 87.120845 
L 117.665938 86.485387 
L 121.850938 85.87163 
L 126.035938 85.160285 
L 130.220938 83.770268 
L 134.405937 77.442816 
L 138.590937 73.70749 
L 142.775937 66.63632 
L 146.960938 59.540976 
L 151.145938 54.584482 
L 155.330938 52.175192 
L 159.515938 52.443338 
L 163.700938 57.35534 
L 167.885938 63.965778 
L 172.070938 70.531429 
L 176.255938 75.225584 
L 180.440938 77.132951 
L 184.625938 76.420435 
L 188.810938 76.135826 
L 192.995938 76.75598 
L 197.180938 74.359676 
L 201.365938 72.801903 
L 205.550938 68.448706 
L 209.735938 61.527018 
L 213.920938 59.497806 
L 218.105938 57.542269 
L 222.290938 58.569221 
L 226.475938 66.891446 
L 230.660938 73.140327 
L 234.845937 73.585974 
L 239.030937 71.58346 
L 243.215937 70.314536 
L 247.400937 71.018619 
L 251.585938 70.051198 
L 255.770938 65.739982 
L 259.955938 65.101364 
L 264.140938 67.253784 
L 268.325938 67.096565 
L 272.510938 66.685586 
L 276.695938 66.713507 
L 280.880937 63.006088 
L 285.065938 61.20981 
L 289.250937 61.355545 
L 293.435938 60.57997 
L 297.620937 61.248002 
L 301.805938 63.470136 
L 305.990938 63.254682 
L 310.175938 62.631576 
L 314.360938 62.752705 
L 318.545938 60.038424 
L 322.730938 56.586335 
L 326.915938 58.280985 
L 331.100937 61.833614 
L 335.285938 64.065604 
L 339.470937 63.135126 
L 343.655938 61.391873 
L 347.840937 61.666629 
L 352.025938 60.946549 
L 356.210938 60.421111 
L 360.395938 60.748393 
L 364.580938 60.842198 
L 368.765938 62.288052 
" clip-path="url(#pe2ff53fc77)" style="fill: none; stroke: #fc4f30; stroke-width: 1.5; stroke-linecap: square"/>
   </g>
   <g id="line2d_10">
    <path d="M 33.965938 96.530008 
L 38.150938 96.014211 
L 42.335938 95.637755 
L 46.520938 96.319918 
L 50.705938 95.171182 
L 54.890937 94.09202 
L 59.075938 94.939924 
L 63.260938 96.353809 
L 67.445938 96.576583 
L 71.630938 96.862052 
L 75.815938 96.491797 
L 80.000938 96.7178 
L 84.185938 96.829333 
L 88.370938 96.488466 
L 92.555938 96.312207 
L 96.740938 96.560548 
L 100.925938 96.424421 
L 105.110938 96.314995 
L 109.295938 94.974917 
L 113.480938 93.512798 
L 117.665938 91.966571 
L 121.850938 90.666891 
L 126.035938 92.161624 
L 130.220938 90.990919 
L 134.405937 88.263469 
L 138.590937 87.781607 
L 142.775937 79.407204 
L 146.960938 75.683032 
L 151.145938 73.556461 
L 155.330938 71.456681 
L 159.515938 73.11235 
L 163.700938 77.792684 
L 167.885938 82.94585 
L 172.070938 86.318301 
L 176.255938 87.553669 
L 180.440938 86.927774 
L 184.625938 85.690704 
L 188.810938 82.966598 
L 192.995938 84.242371 
L 197.180938 88.292034 
L 201.365938 89.097092 
L 205.550938 87.291345 
L 209.735938 82.363724 
L 213.920938 82.85042 
L 218.105938 82.242065 
L 222.290938 81.908352 
L 226.475938 86.474927 
L 230.660938 89.214959 
L 234.845937 88.65467 
L 239.030937 85.789205 
L 243.215937 83.435047 
L 247.400937 82.50669 
L 251.585938 81.889644 
L 255.770938 81.883445 
L 259.955938 82.733906 
L 264.140938 81.911205 
L 268.325938 78.90459 
L 272.510938 77.743615 
L 276.695938 78.996477 
L 280.880937 76.320617 
L 285.065938 74.515717 
L 289.250937 74.605993 
L 293.435938 73.819913 
L 297.620937 74.178167 
L 301.805938 77.681937 
L 305.990938 77.390042 
L 310.175938 76.084806 
L 314.360938 75.122431 
L 318.545938 73.319114 
L 322.730938 71.529532 
L 326.915938 71.791535 
L 331.100937 73.179487 
L 335.285938 74.178919 
L 339.470937 72.642219 
L 343.655938 69.981258 
L 347.840937 71.340606 
L 352.025938 72.629132 
L 356.210938 72.797933 
L 360.395938 72.611078 
L 364.580938 73.295757 
L 368.765938 74.181476 
" clip-path="url(#pe2ff53fc77)" style="fill: none; stroke: #e5ae38; stroke-width: 1.5; stroke-linecap: square"/>
   </g>
   <g id="line2d_11">
    <path d="M 33.965938 83.688255 
L 38.150938 80.808517 
L 42.335938 82.116053 
L 46.520938 85.843495 
L 50.705938 85.565767 
L 54.890937 85.547482 
L 59.075938 85.845284 
L 63.260938 86.78099 
L 67.445938 87.418236 
L 71.630938 85.619843 
L 75.815938 87.086029 
L 80.000938 88.142487 
L 84.185938 89.974426 
L 88.370938 87.687329 
L 92.555938 84.089898 
L 96.740938 85.059403 
L 100.925938 87.202719 
L 105.110938 87.310573 
L 109.295938 84.697416 
L 113.480938 80.299424 
L 117.665938 77.53516 
L 121.850938 74.623768 
L 126.035938 72.235435 
L 130.220938 67.787698 
L 134.405937 61.94251 
L 138.590937 56.305067 
L 142.775937 48.076266 
L 146.960938 39.002393 
L 151.145938 32.174428 
L 155.330938 29.61209 
L 159.515938 31.385103 
L 163.700938 39.425816 
L 167.885938 48.916122 
L 172.070938 56.248728 
L 176.255938 62.107943 
L 180.440938 66.070361 
L 184.625938 66.027009 
L 188.810938 64.855758 
L 192.995938 63.618359 
L 197.180938 60.802232 
L 201.365938 58.675958 
L 205.550938 52.49625 
L 209.735938 42.786216 
L 213.920938 39.127879 
L 218.105938 37.346758 
L 222.290938 37.145436 
L 226.475938 45.647754 
L 230.660938 53.725164 
L 234.845937 53.630529 
L 239.030937 52.515981 
L 243.215937 52.296935 
L 247.400937 52.354629 
L 251.585938 50.573537 
L 255.770938 46.332239 
L 259.955938 45.655133 
L 264.140938 47.589133 
L 268.325938 45.412211 
L 272.510938 44.020147 
L 276.695938 43.7223 
L 280.880937 40.747043 
L 285.065938 39.002686 
L 289.250937 39.730847 
L 293.435938 39.456156 
L 297.620937 39.31556 
L 301.805938 40.44815 
L 305.990938 40.138419 
L 310.175938 39.448327 
L 314.360938 39.539518 
L 318.545938 37.148673 
L 322.730938 33.645323 
L 326.915938 34.37076 
L 331.100937 39.743268 
L 335.285938 43.85201 
L 339.470937 43.013045 
L 343.655938 40.266546 
L 347.840937 39.077604 
L 352.025938 39.457424 
L 356.210938 40.545085 
L 360.395938 40.943309 
L 364.580938 41.653693 
L 368.765938 44.414174 
" clip-path="url(#pe2ff53fc77)" style="fill: none; stroke-dasharray: 1.5,2.475; stroke-dashoffset: 0; stroke: #808080; stroke-width: 1.5"/>
   </g>
   <g id="LineCollection_1">
    <path d="M 117.665938 99.43875 
L 117.665938 26.67375 
" clip-path="url(#pe2ff53fc77)" style="fill: none; stroke-dasharray: 3.7,1.6; stroke-dashoffset: 0; stroke: #808080"/>
   </g>
   <g id="patch_3">
    <path d="M 33.965938 99.43875 
L 33.965938 16.27875 
" style="fill: none; stroke: #b0b0b0; stroke-width: 0.8; stroke-linejoin: miter; stroke-linecap: square"/>
   </g>
   <g id="patch_4">
    <path d="M 33.965938 99.43875 
L 368.765938 99.43875 
" style="fill: none; stroke: #b0b0b0; stroke-width: 0.8; stroke-linejoin: miter; stroke-linecap: square"/>
   </g>
   <g id="text_11">
    <!-- BERT -->
    <g style="fill: #30a2da" transform="translate(368.765938 54.093041) scale(0.08 -0.08)">
     <defs>
      <path id="DejaVuSans-42" d="M 1259 2228 
L 1259 519 
L 2272 519 
Q 2781 519 3026 730 
Q 3272 941 3272 1375 
Q 3272 1813 3026 2020 
Q 2781 2228 2272 2228 
L 1259 2228 
z
M 1259 4147 
L 1259 2741 
L 2194 2741 
Q 2656 2741 2882 2914 
Q 3109 3088 3109 3444 
Q 3109 3797 2882 3972 
Q 2656 4147 2194 4147 
L 1259 4147 
z
M 628 4666 
L 2241 4666 
Q 2963 4666 3353 4366 
Q 3744 4066 3744 3513 
Q 3744 3084 3544 2831 
Q 3344 2578 2956 2516 
Q 3422 2416 3680 2098 
Q 3938 1781 3938 1306 
Q 3938 681 3513 340 
Q 3088 0 2303 0 
L 628 0 
L 628 4666 
z
" transform="scale(0.015625)"/>
      <path id="DejaVuSans-45" d="M 628 4666 
L 3578 4666 
L 3578 4134 
L 1259 4134 
L 1259 2753 
L 3481 2753 
L 3481 2222 
L 1259 2222 
L 1259 531 
L 3634 531 
L 3634 0 
L 628 0 
L 628 4666 
z
" transform="scale(0.015625)"/>
     </defs>
     <use xlink:href="#DejaVuSans-42"/>
     <use xlink:href="#DejaVuSans-45" x="68.603516"/>
     <use xlink:href="#DejaVuSans-52" x="131.787109"/>
     <use xlink:href="#DejaVuSans-54" x="194.019531"/>
    </g>
   </g>
   <g id="text_12">
    <!-- GloVe -->
    <g style="fill: #fc4f30" transform="translate(368.765938 62.288052) scale(0.08 -0.08)">
     <defs>
      <path id="DejaVuSans-47" d="M 3809 666 
L 3809 1919 
L 2778 1919 
L 2778 2438 
L 4434 2438 
L 4434 434 
Q 4069 175 3628 42 
Q 3188 -91 2688 -91 
Q 1594 -91 976 548 
Q 359 1188 359 2328 
Q 359 3472 976 4111 
Q 1594 4750 2688 4750 
Q 3144 4750 3555 4637 
Q 3966 4525 4313 4306 
L 4313 3634 
Q 3963 3931 3569 4081 
Q 3175 4231 2741 4231 
Q 1884 4231 1454 3753 
Q 1025 3275 1025 2328 
Q 1025 1384 1454 906 
Q 1884 428 2741 428 
Q 3075 428 3337 486 
Q 3600 544 3809 666 
z
" transform="scale(0.015625)"/>
      <path id="DejaVuSans-6c" d="M 603 4863 
L 1178 4863 
L 1178 0 
L 603 0 
L 603 4863 
z
" transform="scale(0.015625)"/>
      <path id="DejaVuSans-6f" d="M 1959 3097 
Q 1497 3097 1228 2736 
Q 959 2375 959 1747 
Q 959 1119 1226 758 
Q 1494 397 1959 397 
Q 2419 397 2687 759 
Q 2956 1122 2956 1747 
Q 2956 2369 2687 2733 
Q 2419 3097 1959 3097 
z
M 1959 3584 
Q 2709 3584 3137 3096 
Q 3566 2609 3566 1747 
Q 3566 888 3137 398 
Q 2709 -91 1959 -91 
Q 1206 -91 779 398 
Q 353 888 353 1747 
Q 353 2609 779 3096 
Q 1206 3584 1959 3584 
z
" transform="scale(0.015625)"/>
      <path id="DejaVuSans-56" d="M 1831 0 
L 50 4666 
L 709 4666 
L 2188 738 
L 3669 4666 
L 4325 4666 
L 2547 0 
L 1831 0 
z
" transform="scale(0.015625)"/>
     </defs>
     <use xlink:href="#DejaVuSans-47"/>
     <use xlink:href="#DejaVuSans-6c" x="77.490234"/>
     <use xlink:href="#DejaVuSans-6f" x="105.273438"/>
     <use xlink:href="#DejaVuSans-56" x="166.455078"/>
     <use xlink:href="#DejaVuSans-65" x="227.113281"/>
    </g>
   </g>
   <g id="text_13">
    <!-- POS -->
    <g style="fill: #e5ae38" transform="translate(368.765938 74.181476) scale(0.08 -0.08)">
     <defs>
      <path id="DejaVuSans-50" d="M 1259 4147 
L 1259 2394 
L 2053 2394 
Q 2494 2394 2734 2622 
Q 2975 2850 2975 3272 
Q 2975 3691 2734 3919 
Q 2494 4147 2053 4147 
L 1259 4147 
z
M 628 4666 
L 2053 4666 
Q 2838 4666 3239 4311 
Q 3641 3956 3641 3272 
Q 3641 2581 3239 2228 
Q 2838 1875 2053 1875 
L 1259 1875 
L 1259 0 
L 628 0 
L 628 4666 
z
" transform="scale(0.015625)"/>
      <path id="DejaVuSans-4f" d="M 2522 4238 
Q 1834 4238 1429 3725 
Q 1025 3213 1025 2328 
Q 1025 1447 1429 934 
Q 1834 422 2522 422 
Q 3209 422 3611 934 
Q 4013 1447 4013 2328 
Q 4013 3213 3611 3725 
Q 3209 4238 2522 4238 
z
M 2522 4750 
Q 3503 4750 4090 4092 
Q 4678 3434 4678 2328 
Q 4678 1225 4090 567 
Q 3503 -91 2522 -91 
Q 1538 -91 948 565 
Q 359 1222 359 2328 
Q 359 3434 948 4092 
Q 1538 4750 2522 4750 
z
" transform="scale(0.015625)"/>
     </defs>
     <use xlink:href="#DejaVuSans-50"/>
     <use xlink:href="#DejaVuSans-4f" x="60.302734"/>
     <use xlink:href="#DejaVuSans-53" x="139.013672"/>
    </g>
   </g>
   <g id="text_14">
    <!-- MEG -->
    <g style="fill: #808080" transform="translate(368.765938 44.414174) scale(0.08 -0.08)">
     <use xlink:href="#DejaVuSans-4d"/>
     <use xlink:href="#DejaVuSans-45" x="86.279297"/>
     <use xlink:href="#DejaVuSans-47" x="149.462891"/>
    </g>
   </g>
   <g id="text_15">
    <!-- word onset -->
    <g style="fill: #808080" transform="translate(95.396563 25.63425) scale(0.08 -0.08)">
     <defs>
      <path id="DejaVuSans-Oblique-77" d="M 544 3500 
L 1113 3500 
L 1259 684 
L 2566 3500 
L 3231 3500 
L 3425 684 
L 4666 3500 
L 5241 3500 
L 3641 0 
L 2969 0 
L 2797 2900 
L 1459 0 
L 781 0 
L 544 3500 
z
" transform="scale(0.015625)"/>
      <path id="DejaVuSans-Oblique-6f" d="M 1625 -91 
Q 1009 -91 651 289 
Q 294 669 294 1325 
Q 294 1706 417 2101 
Q 541 2497 738 2766 
Q 1047 3184 1428 3384 
Q 1809 3584 2291 3584 
Q 2888 3584 3255 3212 
Q 3622 2841 3622 2241 
Q 3622 1825 3500 1412 
Q 3378 1000 3181 728 
Q 2875 309 2494 109 
Q 2113 -91 1625 -91 
z
M 891 1344 
Q 891 869 1089 633 
Q 1288 397 1691 397 
Q 2269 397 2648 901 
Q 3028 1406 3028 2181 
Q 3028 2634 2825 2865 
Q 2622 3097 2228 3097 
Q 1903 3097 1650 2945 
Q 1397 2794 1197 2484 
Q 1050 2253 970 1956 
Q 891 1659 891 1344 
z
" transform="scale(0.015625)"/>
      <path id="DejaVuSans-Oblique-72" d="M 2853 2969 
Q 2766 3016 2653 3041 
Q 2541 3066 2413 3066 
Q 1953 3066 1609 2717 
Q 1266 2369 1153 1784 
L 800 0 
L 225 0 
L 909 3500 
L 1484 3500 
L 1375 2956 
Q 1603 3259 1920 3421 
Q 2238 3584 2597 3584 
Q 2691 3584 2781 3573 
Q 2872 3563 2963 3538 
L 2853 2969 
z
" transform="scale(0.015625)"/>
      <path id="DejaVuSans-Oblique-64" d="M 2675 525 
Q 2444 222 2128 65 
Q 1813 -91 1428 -91 
Q 903 -91 598 267 
Q 294 625 294 1247 
Q 294 1766 478 2236 
Q 663 2706 1013 3078 
Q 1244 3325 1534 3454 
Q 1825 3584 2144 3584 
Q 2481 3584 2739 3421 
Q 2997 3259 3138 2956 
L 3513 4863 
L 4091 4863 
L 3144 0 
L 2566 0 
L 2675 525 
z
M 891 1350 
Q 891 897 1095 644 
Q 1300 391 1663 391 
Q 1931 391 2161 520 
Q 2391 650 2566 903 
Q 2750 1166 2856 1509 
Q 2963 1853 2963 2188 
Q 2963 2622 2758 2865 
Q 2553 3109 2194 3109 
Q 1922 3109 1687 2981 
Q 1453 2853 1288 2613 
Q 1106 2353 998 2009 
Q 891 1666 891 1350 
z
" transform="scale(0.015625)"/>
      <path id="DejaVuSans-Oblique-20" transform="scale(0.015625)"/>
      <path id="DejaVuSans-Oblique-6e" d="M 3566 2113 
L 3156 0 
L 2578 0 
L 2988 2091 
Q 3016 2238 3031 2350 
Q 3047 2463 3047 2528 
Q 3047 2791 2881 2937 
Q 2716 3084 2419 3084 
Q 1956 3084 1622 2776 
Q 1288 2469 1184 1941 
L 800 0 
L 225 0 
L 903 3500 
L 1478 3500 
L 1363 2950 
Q 1603 3253 1940 3418 
Q 2278 3584 2650 3584 
Q 3113 3584 3367 3334 
Q 3622 3084 3622 2631 
Q 3622 2519 3608 2391 
Q 3594 2263 3566 2113 
z
" transform="scale(0.015625)"/>
      <path id="DejaVuSans-Oblique-73" d="M 3200 3397 
L 3091 2853 
Q 2863 2978 2609 3040 
Q 2356 3103 2088 3103 
Q 1634 3103 1373 2948 
Q 1113 2794 1113 2528 
Q 1113 2219 1719 2053 
Q 1766 2041 1788 2034 
L 1972 1978 
Q 2547 1819 2739 1644 
Q 2931 1469 2931 1166 
Q 2931 609 2489 259 
Q 2047 -91 1331 -91 
Q 1053 -91 747 -37 
Q 441 16 72 128 
L 184 722 
Q 500 559 806 475 
Q 1113 391 1394 391 
Q 1816 391 2080 572 
Q 2344 753 2344 1031 
Q 2344 1331 1650 1516 
L 1591 1531 
L 1394 1581 
Q 956 1697 753 1886 
Q 550 2075 550 2369 
Q 550 2928 970 3256 
Q 1391 3584 2113 3584 
Q 2397 3584 2667 3537 
Q 2938 3491 3200 3397 
z
" transform="scale(0.015625)"/>
      <path id="DejaVuSans-Oblique-65" d="M 3078 2063 
Q 3088 2113 3092 2166 
Q 3097 2219 3097 2272 
Q 3097 2653 2873 2875 
Q 2650 3097 2266 3097 
Q 1838 3097 1509 2826 
Q 1181 2556 1013 2059 
L 3078 2063 
z
M 3578 1613 
L 903 1613 
Q 884 1494 878 1425 
Q 872 1356 872 1306 
Q 872 872 1139 634 
Q 1406 397 1894 397 
Q 2269 397 2603 481 
Q 2938 566 3225 728 
L 3116 159 
Q 2806 34 2476 -28 
Q 2147 -91 1806 -91 
Q 1078 -91 686 257 
Q 294 606 294 1247 
Q 294 1794 489 2264 
Q 684 2734 1063 3103 
Q 1306 3334 1642 3459 
Q 1978 3584 2356 3584 
Q 2950 3584 3301 3228 
Q 3653 2872 3653 2272 
Q 3653 2128 3634 1964 
Q 3616 1800 3578 1613 
z
" transform="scale(0.015625)"/>
      <path id="DejaVuSans-Oblique-74" d="M 2706 3500 
L 2619 3053 
L 1472 3053 
L 1100 1153 
Q 1081 1047 1072 975 
Q 1063 903 1063 863 
Q 1063 663 1183 572 
Q 1303 481 1569 481 
L 2150 481 
L 2053 0 
L 1503 0 
Q 991 0 739 200 
Q 488 400 488 806 
Q 488 878 497 964 
Q 506 1050 525 1153 
L 897 3053 
L 409 3053 
L 500 3500 
L 978 3500 
L 1172 4494 
L 1747 4494 
L 1556 3500 
L 2706 3500 
z
" transform="scale(0.015625)"/>
     </defs>
     <use xlink:href="#DejaVuSans-Oblique-77"/>
     <use xlink:href="#DejaVuSans-Oblique-6f" x="81.787109"/>
     <use xlink:href="#DejaVuSans-Oblique-72" x="142.96875"/>
     <use xlink:href="#DejaVuSans-Oblique-64" x="184.082031"/>
     <use xlink:href="#DejaVuSans-Oblique-20" x="247.558594"/>
     <use xlink:href="#DejaVuSans-Oblique-6f" x="279.345703"/>
     <use xlink:href="#DejaVuSans-Oblique-6e" x="340.527344"/>
     <use xlink:href="#DejaVuSans-Oblique-73" x="403.90625"/>
     <use xlink:href="#DejaVuSans-Oblique-65" x="456.005859"/>
     <use xlink:href="#DejaVuSans-Oblique-74" x="517.529297"/>
    </g>
   </g>
  </g>
 </g>
 <defs>
  <clipPath id="pe2ff53fc77">
   <rect x="33.965938" y="16.27875" width="334.8" height="83.16"/>
  </clipPath>
 </defs>
</svg>
